<svg width="25" height="24" viewBox="0 0 25 24" fill="none" xmlns="http://www.w3.org/2000/svg">
<mask id="mask0_71_23436" style="mask-type:alpha" maskUnits="userSpaceOnUse" x="0" y="0" width="25" height="24">
<rect x="0.25" width="24" height="24" fill="#D9D9D9"/>
</mask>
<g mask="url(#mask0_71_23436)">
<path d="M8.25 19H15.25V9.00002H13.25C12.7833 9.00002 12.4 9.11669 12.1 9.35002C11.8 9.58336 11.4417 9.92502 11.025 10.375C10.6917 10.7417 10.3042 11.1209 9.8625 11.5125C9.42083 11.9042 8.88333 12.1917 8.25 12.375V19ZM6.25 21V12.35C5.38333 12.1167 4.66667 11.65 4.1 10.95C3.53333 10.25 3.25 9.43336 3.25 8.50002C3.25 7.61669 3.50417 6.83336 4.0125 6.15002C4.52083 5.46669 5.175 4.99169 5.975 4.72502C6.35833 3.92502 6.92917 3.27502 7.6875 2.77502C8.44583 2.27502 9.3 2.02502 10.25 2.02502C10.8333 2.02502 11.3792 2.12502 11.8875 2.32502C12.3958 2.52502 12.8583 2.79169 13.275 3.12502C13.4417 3.09169 13.6 3.06252 13.75 3.03752C13.9 3.01252 14.0667 3.00002 14.25 3.00002C15.35 3.00002 16.2917 3.39169 17.075 4.17502C17.8583 4.95836 18.25 5.90002 18.25 7.00002C18.25 7.36669 18.2042 7.71669 18.1125 8.05002C18.0208 8.38336 17.8833 8.70002 17.7 9.00002H19.25C19.8 9.00002 20.2708 9.19586 20.6625 9.58752C21.0542 9.97919 21.25 10.45 21.25 11V17C21.25 17.55 21.0542 18.0209 20.6625 18.4125C20.2708 18.8042 19.8 19 19.25 19H17.25V21H6.25ZM5.25 8.50002C5.25 9.05002 5.44583 9.52086 5.8375 9.91252C6.22917 10.3042 6.7 10.5 7.25 10.5C7.78333 10.5 8.2375 10.325 8.6125 9.97502C8.9875 9.62502 9.375 9.23336 9.775 8.80002C10.1917 8.35002 10.6625 7.93752 11.1875 7.56252C11.7125 7.18752 12.4 7.00002 13.25 7.00002H16.25C16.25 6.45002 16.0542 5.97919 15.6625 5.58752C15.2708 5.19586 14.8 5.00002 14.25 5.00002C13.8333 5.00002 13.4833 5.05419 13.2 5.16252L12.775 5.32502L12 4.67502C11.8167 4.52502 11.5792 4.37919 11.2875 4.23752C10.9958 4.09586 10.65 4.02502 10.25 4.02502C9.71667 4.02502 9.22917 4.16669 8.7875 4.45002C8.34583 4.73336 8.00833 5.11669 7.775 5.60002L7.425 6.35002L6.625 6.62502C6.20833 6.75836 5.875 6.99586 5.625 7.33752C5.375 7.67919 5.25 8.06669 5.25 8.50002ZM17.25 17H19.25V11H17.25V17Z" fill="#BFBFBF"/>
</g>
</svg>
