<svg width="25" height="24" viewBox="0 0 25 24" fill="none" xmlns="http://www.w3.org/2000/svg">
<mask id="mask0_71_23430" style="mask-type:alpha" maskUnits="userSpaceOnUse" x="0" y="0" width="25" height="24">
<rect x="0.75" width="24" height="24" fill="#D9D9D9"/>
</mask>
<g mask="url(#mask0_71_23430)">
<path d="M4.75 4L6.75 8H9.75L7.75 4H9.75L11.75 8H14.75L12.75 4H14.75L16.75 8H19.75L17.75 4H20.75C21.3 4 21.7708 4.19583 22.1625 4.5875C22.5542 4.97917 22.75 5.45 22.75 6V18C22.75 18.55 22.5542 19.0208 22.1625 19.4125C21.7708 19.8042 21.3 20 20.75 20H4.75C4.2 20 3.72917 19.8042 3.3375 19.4125C2.94583 19.0208 2.75 18.55 2.75 18V6C2.75 5.45 2.94583 4.97917 3.3375 4.5875C3.72917 4.19583 4.2 4 4.75 4ZM4.75 10V18H20.75V10H4.75Z" fill="#BFBFBF"/>
</g>
</svg>
